<svg version="1.1" id="Layer_1" xmlns="http://www.w3.org/2000/svg" xmlns:xlink="http://www.w3.org/1999/xlink" x="0px" y="0px"
	 width="100%" viewBox="0 0 1408 768" enable-background="new 0 0 1408 768" xml:space="preserve">
<path fill="#FFFFFF" opacity="1.000000" stroke="none" 
	d="
M909.000000,769.000000 
	C606.034668,769.000000 303.569366,769.000000 1.052036,769.000000 
	C1.052036,513.064087 1.052036,257.128113 1.052036,1.096073 
	C470.215424,1.096073 939.430908,1.096073 1408.823242,1.096073 
	C1408.823242,256.999908 1408.823242,512.999939 1408.823242,769.000000 
	C1242.461182,769.000000 1075.980591,769.000000 909.000000,769.000000 
M1120.913330,397.110931 
	C1124.387573,393.836761 1127.861816,390.562622 1131.917236,386.974518 
	C1133.003662,385.516937 1134.242188,384.147980 1135.151489,382.587158 
	C1140.229248,373.870758 1142.292847,364.250092 1142.400757,354.350769 
	C1142.660278,330.539886 1142.512451,306.724548 1142.503418,282.911011 
	C1142.502930,281.789520 1142.255737,280.668121 1142.076294,279.147278 
	C1136.631836,279.147278 1131.384399,279.147278 1125.482056,279.147278 
	C1125.482056,281.376434 1125.482422,283.159546 1125.481934,284.942657 
	C1125.476807,306.424988 1125.510742,327.907440 1125.429688,349.389465 
	C1125.415283,353.201935 1125.122437,357.039459 1124.614014,360.819153 
	C1122.964355,373.084625 1117.304077,382.944855 1105.169922,386.927399 
	C1091.406616,391.444672 1077.812134,391.019958 1066.320801,380.467102 
	C1057.448486,372.319153 1056.006348,361.347290 1055.877441,350.230804 
	C1055.626587,328.584808 1055.803467,306.933929 1055.781006,285.285095 
	C1055.779053,283.353943 1055.616211,281.422943 1055.525635,279.436462 
	C1049.877686,279.436462 1044.804688,279.436462 1039.885620,279.436462 
	C1039.585693,280.061523 1039.323120,280.352966 1039.323608,280.643921 
	C1039.367065,307.428680 1038.841431,334.235748 1039.856201,360.984344 
	C1040.156006,368.884735 1043.580811,377.353363 1047.719604,384.279144 
	C1056.480103,398.939209 1071.122925,404.498901 1087.518677,405.240601 
	C1099.051636,405.762268 1110.490234,404.671112 1120.913330,397.110931 
M870.930603,342.019653 
	C870.930603,321.150726 870.930603,300.281830 870.930603,279.591125 
	C864.980225,279.591125 859.910278,279.591125 854.743408,279.591125 
	C854.743408,320.765533 854.743408,361.749512 854.743408,402.712219 
	C860.308899,402.712219 865.393311,402.712219 870.745605,402.712219 
	C870.745605,383.608948 870.745605,364.843750 870.892822,345.297424 
	C870.843628,344.507690 870.794434,343.717987 870.930603,342.019653 
M164.878586,465.381287 
	C176.177673,457.475677 187.864670,450.061279 198.668732,441.528870 
	C209.890442,432.666656 220.280334,422.748077 230.993454,413.245789 
	C243.272552,402.354584 267.638672,406.349091 277.009735,414.199677 
	C273.155457,415.132538 269.554596,416.004059 265.953735,416.875610 
	C265.790039,417.335480 265.626373,417.795349 265.462708,418.255249 
	C269.101440,420.664825 272.620941,423.282410 276.399323,425.448334 
	C293.589264,435.302124 310.869537,444.998169 328.079590,454.817108 
	C334.552063,458.509857 340.360413,462.872986 341.696350,471.163605 
	C353.296448,469.741821 363.111450,464.943787 372.294556,458.845459 
	C375.336914,456.825134 377.928802,456.488129 381.463074,457.036743 
	C400.013275,459.916168 418.602386,462.569275 437.219299,464.982025 
	C443.870819,465.844055 450.638275,465.811798 457.352844,466.187775 
	C451.051056,470.145813 449.200439,476.223145 448.168854,482.806000 
	C447.705811,485.760742 446.969910,488.671722 446.442444,491.617737 
	C445.935516,494.449036 445.537903,497.299896 445.092194,500.142181 
	C448.231995,499.475708 451.572296,499.285797 454.478149,498.063232 
	C470.056824,491.508789 482.188660,480.478973 493.077606,467.851227 
	C494.481110,466.223602 496.533142,464.500824 498.524078,464.138916 
	C512.753113,461.552704 527.200867,460.001587 541.285339,456.820618 
	C578.746643,448.359985 613.577271,433.752869 643.936523,409.755829 
	C649.085205,405.686127 653.639099,400.616364 657.575745,395.342743 
	C660.491516,391.436768 658.603088,388.935516 653.632080,388.871735 
	C650.600708,388.832825 647.568420,388.864563 643.470642,388.864563 
	C646.676819,386.109436 648.860535,384.094757 651.188904,382.263916 
	C654.823669,379.405792 654.599487,376.379486 651.554016,373.423126 
	C648.212219,370.179260 644.917480,366.791260 641.152649,364.093536 
	C597.690002,332.949646 549.425049,314.639648 496.057983,309.884674 
	C493.082306,309.619568 489.835632,307.885162 487.484436,305.916016 
	C478.178864,298.122620 469.434784,289.645386 459.973358,282.056519 
	C454.112000,277.355194 447.333710,273.797089 442.182922,270.503387 
	C437.052673,275.037415 433.219971,278.874847 428.942047,282.126526 
	C411.558899,295.339630 390.918304,301.255219 370.391266,306.847687 
	C334.795868,316.545410 301.136078,330.538910 269.454620,349.366211 
	C267.710419,350.402771 266.230255,351.883667 263.419861,354.117279 
	C269.025818,355.712036 273.243958,356.911987 277.462097,358.111938 
	C271.789795,361.111053 266.179474,363.147491 260.461243,364.813660 
	C247.704041,368.530853 236.626602,365.633423 226.805984,356.564789 
	C215.552628,346.173096 204.104828,335.972870 192.399017,326.095337 
	C179.208618,314.965088 165.131409,305.175903 147.739716,301.664825 
	C144.807495,301.072876 141.728836,301.206299 137.501495,300.923126 
	C139.176392,302.963531 139.752914,303.978973 140.601318,304.651367 
	C149.928299,312.043030 156.334488,321.771881 162.318970,331.812042 
	C171.268768,346.827057 180.007614,361.968567 189.039841,376.933380 
	C193.253876,383.915314 192.627075,390.381378 188.521362,397.102478 
	C180.796494,409.748230 173.125549,422.431915 165.712387,435.261688 
	C158.525024,447.700775 151.415054,460.131165 139.830109,469.195770 
	C139.383408,469.545319 139.236282,470.277710 138.607635,471.492279 
	C148.262589,472.853058 156.193314,469.061371 164.878586,465.381287 
M1234.240234,404.883453 
	C1241.222290,402.868378 1248.621826,401.729736 1255.095459,398.647095 
	C1266.846436,393.051514 1272.319214,382.665649 1272.387817,369.879120 
	C1272.457275,356.957947 1266.679688,347.042908 1254.718750,341.529114 
	C1249.008057,338.896515 1242.954102,336.962219 1236.962158,334.996490 
	C1227.659180,331.944489 1218.015869,329.747894 1209.051025,325.933258 
	C1205.282471,324.329742 1201.619019,320.006592 1200.108765,316.074432 
	C1196.784546,307.419067 1201.937134,298.418457 1211.729248,294.865906 
	C1227.472046,289.154449 1241.808838,292.896454 1255.032837,302.381134 
	C1256.455811,303.401642 1257.857178,304.452118 1259.551636,305.696655 
	C1262.666626,301.322052 1265.428101,297.443878 1268.225586,293.515167 
	C1267.610229,292.708130 1267.307251,292.075745 1266.810425,291.699951 
	C1264.687988,290.094971 1262.628662,288.354736 1260.330566,287.041840 
	C1239.645874,275.225128 1218.482788,272.967407 1197.356079,285.419098 
	C1178.507812,296.527893 1175.646729,329.684052 1200.417847,340.438660 
	C1206.345703,343.012268 1212.570557,344.926788 1218.719238,346.961395 
	C1227.699463,349.932983 1236.975220,352.160645 1245.675415,355.784851 
	C1253.742188,359.145142 1256.187744,364.914551 1255.214844,373.624634 
	C1254.410522,380.824646 1248.483032,386.591339 1239.343140,388.893585 
	C1230.565063,391.104645 1221.517334,391.229065 1213.290283,387.844604 
	C1204.196655,384.103729 1195.792114,378.687653 1186.223755,373.536133 
	C1184.004883,376.226654 1180.906860,379.983032 1177.620483,383.967957 
	C1193.380859,399.697021 1211.896362,406.131866 1234.240234,404.883453 
M947.946045,364.500000 
	C947.946045,377.231049 947.946045,389.962097 947.946045,402.710327 
	C953.890503,402.710327 958.975098,402.710327 964.618042,402.710327 
	C964.618042,366.522552 964.618042,330.642151 964.618042,294.063904 
	C978.859863,294.063904 992.558594,294.063904 1006.433716,294.063904 
	C1006.433716,288.794586 1006.433716,284.231689 1006.433716,279.467590 
	C972.892090,279.467590 939.698486,279.467590 906.263794,279.467590 
	C906.263794,284.373810 906.263794,288.933167 906.263794,294.082581 
	C908.341858,294.082581 910.124207,294.082672 911.906616,294.082550 
	C922.062744,294.081970 932.224915,294.286041 942.372070,293.984955 
	C946.738342,293.855438 948.080200,295.106689 948.034180,299.567444 
	C947.814026,320.876312 947.941833,342.188812 947.946045,364.500000 
M733.068054,295.502197 
	C733.068054,331.235474 733.068054,366.968750 733.068054,402.741272 
	C761.654114,402.741272 789.408386,402.741272 817.370361,402.741272 
	C817.370361,397.740967 817.370361,393.048950 817.370361,387.802277 
	C794.692261,387.802277 772.453064,387.802277 749.590332,387.802277 
	C749.590332,351.352631 749.590332,315.462280 749.590332,279.581879 
	C743.740417,279.581879 738.538635,279.581879 733.068176,279.581879 
	C733.068176,284.861420 733.068176,289.682739 733.068054,295.502197 
M1075.288452,472.869690 
	C1076.885376,469.032928 1075.208252,467.696564 1071.358643,467.805450 
	C1070.172974,470.656921 1069.001465,473.474548 1067.251221,477.683990 
	C1063.979004,474.075958 1061.579712,471.157776 1058.888916,468.539368 
	C1056.121338,465.846100 1056.076294,464.115814 1059.295044,461.430267 
	C1062.059692,459.123779 1064.635498,455.820465 1065.711548,452.452179 
	C1067.109619,448.076233 1065.445312,443.938507 1060.838379,441.622742 
	C1055.463989,438.921173 1047.412354,439.867706 1043.524780,443.758270 
	C1039.887451,447.398315 1039.149902,452.723419 1041.759644,457.586670 
	C1042.818970,459.560760 1044.161377,461.382965 1045.371460,463.268677 
	C1042.892822,465.324188 1040.736450,466.891846 1038.837158,468.725800 
	C1030.406372,476.866333 1033.171753,488.871155 1044.562256,491.389099 
	C1049.642578,492.512085 1056.011719,492.663177 1060.476440,490.514221 
	C1066.397339,487.664459 1070.781128,485.890442 1075.140625,492.657135 
	C1076.671631,491.041321 1077.724365,489.930206 1079.180542,488.393463 
	C1072.631226,484.541260 1071.230591,479.667542 1075.288452,472.869690 
M816.899536,492.531067 
	C818.064636,492.547455 819.234314,492.639069 820.394165,492.568817 
	C834.126404,491.736664 844.327759,482.401031 845.702148,469.437378 
	C847.144958,455.828888 839.216797,444.238434 826.149292,440.852112 
	C812.929199,437.426239 799.608826,443.741577 794.266724,455.967987 
	C787.151123,472.253418 797.026855,488.771698 816.899536,492.531067 
M928.498718,440.461029 
	C922.552612,440.461029 916.606506,440.461029 910.215210,440.461029 
	C910.215210,457.206940 910.164001,473.329895 910.362366,489.449799 
	C910.372559,490.281586 912.505371,491.774384 913.672485,491.796967 
	C923.664490,491.990112 933.663574,492.010315 943.654663,491.801147 
	C944.934814,491.774353 946.181213,490.135773 947.443237,489.243805 
	C946.104553,488.255859 944.823486,486.525299 943.416504,486.416046 
	C938.779968,486.055939 934.097778,486.267883 929.433228,486.286896 
	C915.879944,486.342072 915.959778,486.350525 916.531311,472.583771 
	C916.655151,469.598816 917.613525,468.409088 920.641113,468.482117 
	C926.635071,468.626678 932.636902,468.435059 938.631409,468.566376 
	C942.606445,468.653442 943.666809,467.013214 942.150085,462.811951 
	C933.822815,462.811951 925.422852,462.811951 917.041992,462.811951 
	C917.041992,456.934784 917.041992,451.710083 917.041992,445.998596 
	C925.925171,445.998596 934.392883,446.118896 942.849060,445.862366 
	C944.047668,445.825989 945.190674,443.956085 946.359375,442.934784 
	C945.236694,442.106293 944.153809,440.635681 942.984131,440.563110 
	C938.503601,440.285126 933.995178,440.456207 928.498718,440.461029 
M763.435181,468.513367 
	C768.423035,467.678986 769.752319,470.025543 769.453003,474.693207 
	C769.095337,480.270599 769.368652,485.888428 769.368652,491.497131 
	C771.874573,491.497131 773.610413,491.497131 775.821594,491.497131 
	C775.821594,475.184753 775.876404,459.234680 775.687012,443.287476 
	C775.675476,442.317688 773.525269,440.450317 772.723022,440.624634 
	C771.452393,440.900665 769.603333,442.494904 769.531494,443.628479 
	C769.195129,448.936218 769.564026,454.288177 769.241577,459.597687 
	C769.171082,460.758026 767.332825,462.727112 766.255371,462.763916 
	C758.270874,463.036591 750.268738,463.040344 742.284119,462.772491 
	C741.178406,462.735321 739.276672,460.787201 739.218811,459.648682 
	C738.982910,455.010284 739.298828,450.342010 739.453369,445.686096 
	C739.634399,440.235504 739.089844,439.803680 733.340576,441.137848 
	C733.340576,457.835449 733.340576,474.563751 733.340576,491.438385 
	C735.357483,491.438385 737.039307,491.438385 739.059814,491.438385 
	C739.059814,485.027283 739.212585,479.042542 739.000488,473.070770 
	C738.880249,469.687439 739.852417,468.284637 743.467529,468.430420 
	C749.785767,468.685242 756.121460,468.507935 763.435181,468.513367 
M1170.273071,472.499542 
	C1170.273071,478.781830 1170.273071,485.064117 1170.273071,491.415466 
	C1172.770020,491.415466 1174.621704,491.415466 1176.814209,491.415466 
	C1176.814209,487.151886 1176.949097,483.332886 1176.772095,479.528381 
	C1176.627686,476.425598 1177.944824,475.553040 1180.899292,475.545715 
	C1186.208008,475.532562 1191.617798,475.685638 1196.801880,474.751099 
	C1206.017700,473.089722 1211.134644,466.366638 1210.861816,457.497467 
	C1210.592407,448.738037 1204.964111,442.179962 1195.683960,441.162781 
	C1188.270142,440.350159 1180.729370,440.510864 1173.253540,440.664795 
	C1172.229126,440.685913 1170.430542,443.145691 1170.391724,444.516052 
	C1170.137817,453.504578 1170.269043,462.503937 1170.273071,472.499542 
M1229.469849,462.892059 
	C1225.309937,472.283600 1221.149902,481.675110 1216.910645,491.245544 
	C1221.139893,492.763855 1223.734253,491.869629 1224.987183,487.790314 
	C1225.473389,486.206818 1226.432129,484.763458 1226.874634,483.172577 
	C1227.821777,479.767181 1229.782349,478.352875 1233.429199,478.584015 
	C1238.076538,478.878540 1242.814941,479.133728 1247.408203,478.559479 
	C1254.587769,477.661835 1259.174805,479.833344 1260.916138,487.212280 
	C1261.957764,491.625671 1264.903809,492.937622 1269.583862,491.205811 
	C1261.991333,474.810974 1254.560913,458.480927 1246.828613,442.295044 
	C1245.161499,438.805389 1240.010132,439.734131 1238.257202,443.561768 
	C1235.414917,449.768707 1232.600830,455.988525 1229.469849,462.892059 
M1148.484375,467.961670 
	C1141.566162,465.639679 1134.536377,463.590210 1127.796265,460.832855 
	C1125.720093,459.983551 1123.314941,457.327728 1123.083496,455.271301 
	C1122.821411,452.942047 1124.312012,449.873627 1126.019287,448.035431 
	C1127.394043,446.555206 1130.289795,445.667877 1132.397827,445.846924 
	C1138.065430,446.328247 1143.672485,447.521606 1150.000000,448.544922 
	C1150.234009,448.015656 1150.928955,446.443878 1151.650391,444.812134 
	C1144.392334,440.120117 1136.997192,439.123474 1129.197388,440.719208 
	C1120.963257,442.403778 1116.420288,447.205841 1116.158569,454.242432 
	C1115.924072,460.545410 1119.587769,464.836761 1127.612183,467.388672 
	C1132.363525,468.899719 1137.230835,470.054169 1141.954468,471.641724 
	C1145.424927,472.808167 1148.103271,475.489685 1146.982666,479.149017 
	C1146.187500,481.745209 1143.780884,484.887817 1141.382324,485.708649 
	C1137.808960,486.931488 1133.464844,487.045227 1129.712769,486.300507 
	C1125.459961,485.456451 1121.498657,483.144531 1117.270996,481.413666 
	C1115.132935,483.383911 1114.363281,485.310852 1117.454468,487.666443 
	C1124.463135,493.007538 1138.797852,494.263550 1146.567139,489.992035 
	C1155.184570,485.254211 1156.360229,475.237213 1148.484375,467.961670 
M872.331177,476.495300 
	C872.331177,481.442596 872.331177,486.389893 872.331177,491.558472 
	C874.691040,491.558472 876.418274,491.558472 878.778198,491.558472 
	C878.778198,476.373474 878.778198,461.489990 878.778198,445.993256 
	C884.948914,445.993256 890.514404,445.993256 895.901306,445.993256 
	C897.520264,441.536835 895.943237,440.373840 892.157959,440.418091 
	C881.009155,440.548401 869.856323,440.568268 858.708252,440.408752 
	C854.625488,440.350342 853.739502,441.977173 855.112793,446.087738 
	C860.607727,446.087738 866.173828,446.087738 872.329834,446.087738 
	C872.329834,456.279785 872.329834,465.888519 872.331177,476.495300 
M964.265930,481.466003 
	C964.265930,484.751740 964.265930,488.037506 964.265930,491.920502 
	C975.277283,491.920502 985.713928,491.987244 996.146118,491.800903 
	C997.033264,491.785034 998.770813,489.772034 998.578918,489.225067 
	C998.171143,488.062592 996.780518,486.466248 995.743591,486.429352 
	C988.925720,486.186707 982.089661,486.156982 975.270203,486.381042 
	C971.774292,486.495880 970.669006,485.297455 970.717163,481.814514 
	C970.887451,469.495544 970.774170,457.172668 970.779724,444.851288 
	C970.780701,442.631073 971.011108,440.463867 967.676392,440.376831 
	C964.064514,440.282471 964.245117,442.553040 964.252197,445.009155 
	C964.286194,456.830933 964.267517,468.652863 964.265930,481.466003 
z"/>
<path fill="#54C4D7" opacity="1.000000" stroke="none" 
	d="
M164.550507,465.563141 
	C156.193314,469.061371 148.262589,472.853058 138.607635,471.492279 
	C139.236282,470.277710 139.383408,469.545319 139.830109,469.195770 
	C151.415054,460.131165 158.525024,447.700775 165.712387,435.261688 
	C173.125549,422.431915 180.796494,409.748230 188.521362,397.102478 
	C192.627075,390.381378 193.253876,383.915314 189.039841,376.933380 
	C180.007614,361.968567 171.268768,346.827057 162.318970,331.812042 
	C156.334488,321.771881 149.928299,312.043030 140.601318,304.651367 
	C139.752914,303.978973 139.176392,302.963531 137.501495,300.923126 
	C141.728836,301.206299 144.807495,301.072876 147.739716,301.664825 
	C165.131409,305.175903 179.208618,314.965088 192.399017,326.095337 
	C204.104828,335.972870 215.552628,346.173096 226.805984,356.564789 
	C236.626602,365.633423 247.704041,368.530853 260.461243,364.813660 
	C266.179474,363.147491 271.789795,361.111053 277.462097,358.111938 
	C273.243958,356.911987 269.025818,355.712036 263.419861,354.117279 
	C266.230255,351.883667 267.710419,350.402771 269.454620,349.366211 
	C301.136078,330.538910 334.795868,316.545410 370.391266,306.847687 
	C390.918304,301.255219 411.558899,295.339630 428.942047,282.126526 
	C433.219971,278.874847 437.052673,275.037415 442.182922,270.503387 
	C447.333710,273.797089 454.112000,277.355194 459.973358,282.056519 
	C469.434784,289.645386 478.178864,298.122620 487.484436,305.916016 
	C489.835632,307.885162 493.082306,309.619568 496.057983,309.884674 
	C549.425049,314.639648 597.690002,332.949646 641.152649,364.093536 
	C644.917480,366.791260 648.212219,370.179260 651.554016,373.423126 
	C654.599487,376.379486 654.823669,379.405792 651.188904,382.263916 
	C648.860535,384.094757 646.676819,386.109436 643.470642,388.864563 
	C647.568420,388.864563 650.600708,388.832825 653.632080,388.871735 
	C658.603088,388.935516 660.491516,391.436768 657.575745,395.342743 
	C653.639099,400.616364 649.085205,405.686127 643.936523,409.755829 
	C613.577271,433.752869 578.746643,448.359985 541.285339,456.820618 
	C527.200867,460.001587 512.753113,461.552704 498.524078,464.138916 
	C496.533142,464.500824 494.481110,466.223602 493.077606,467.851227 
	C482.188660,480.478973 470.056824,491.508789 454.478149,498.063232 
	C451.572296,499.285797 448.231995,499.475708 445.092224,500.142181 
	C445.537903,497.299896 445.935516,494.449036 446.442444,491.617737 
	C446.969910,488.671722 447.705811,485.760742 448.168854,482.806000 
	C449.200439,476.223145 451.051056,470.145813 457.352844,466.187775 
	C450.638275,465.811798 443.870819,465.844055 437.219299,464.982025 
	C418.602386,462.569275 400.013275,459.916168 381.463074,457.036743 
	C377.928802,456.488129 375.336914,456.825134 372.294556,458.845459 
	C363.111450,464.943787 353.296448,469.741821 341.696350,471.163605 
	C340.360413,462.872986 334.552063,458.509857 328.079590,454.817108 
	C310.869537,444.998169 293.589264,435.302124 276.399323,425.448334 
	C272.620941,423.282410 269.101440,420.664825 265.462708,418.255249 
	C265.626373,417.795349 265.790039,417.335480 265.953735,416.875610 
	C269.554596,416.004059 273.155457,415.132538 277.009735,414.199677 
	C267.638672,406.349091 243.272552,402.354584 230.993454,413.245789 
	C220.280334,422.748077 209.890442,432.666656 198.668732,441.528870 
	C187.864670,450.061279 176.177673,457.475677 164.550507,465.563141 
M548.251892,406.122223 
	C553.027405,417.549530 560.108765,426.878723 571.664246,432.272278 
	C576.770386,434.655579 581.716064,435.210297 586.943237,432.561981 
	C594.070190,428.951233 601.467163,425.855225 608.487854,422.056915 
	C621.201965,415.178314 633.449585,407.550934 643.856384,396.813995 
	C637.391174,397.973206 630.925964,399.132385 624.460693,400.291595 
	C624.092224,399.691193 623.723694,399.090820 623.355164,398.490417 
	C625.777405,395.299652 628.011719,391.940582 630.674622,388.965179 
	C633.362061,385.962341 636.474792,383.340057 639.851562,380.121796 
	C633.980225,378.243347 628.788025,376.504272 623.545532,374.933380 
	C620.262817,373.949738 617.900391,372.674377 616.373779,368.981140 
	C612.220459,358.933258 599.613647,355.611023 591.380066,362.394775 
	C588.116455,365.083649 585.511292,364.761505 581.895813,363.983185 
	C558.182373,358.878174 534.547729,353.181122 510.617798,349.370117 
	C485.413910,345.356232 459.815155,345.870544 434.363953,347.267181 
	C421.432739,347.976746 408.364197,349.031525 395.727234,351.688080 
	C365.478912,358.046997 335.474487,365.557678 305.320312,372.376862 
	C291.711700,375.454376 278.079712,378.733612 264.278534,380.570740 
	C249.742676,382.505646 235.408783,380.147278 221.728790,374.457397 
	C216.617020,372.331299 215.357300,373.094574 214.096802,378.386444 
	C212.511871,385.040344 212.633743,391.634705 215.392334,397.967194 
	C218.635147,405.411285 221.335312,406.420074 228.492996,402.660828 
	C240.118301,396.555176 252.259781,395.144287 264.775848,398.849579 
	C271.443634,400.823517 278.069519,403.240997 284.316040,406.277588 
	C301.381866,414.573853 317.927368,423.996460 335.235260,431.727692 
	C378.421143,451.018219 423.970062,457.863831 471.074921,456.341553 
	C495.299683,455.558655 519.152954,452.681976 542.656494,446.889496 
	C550.113525,445.051727 557.465393,442.787689 565.572083,440.521118 
	C541.767395,424.527893 537.160828,397.220001 542.293823,380.993195 
	C544.002319,388.281219 546.006897,396.832397 548.251892,406.122223 
z"/>
<path fill="#56C3D6" opacity="1.000000" stroke="none" 
	d="
M1233.769287,404.904327 
	C1211.896362,406.131866 1193.380859,399.697021 1177.620483,383.967957 
	C1180.906860,379.983032 1184.004883,376.226654 1186.223755,373.536133 
	C1195.792114,378.687653 1204.196655,384.103729 1213.290283,387.844604 
	C1221.517334,391.229065 1230.565063,391.104645 1239.343140,388.893585 
	C1248.483032,386.591339 1254.410522,380.824646 1255.214844,373.624634 
	C1256.187744,364.914551 1253.742188,359.145142 1245.675415,355.784851 
	C1236.975220,352.160645 1227.699463,349.932983 1218.719238,346.961395 
	C1212.570557,344.926788 1206.345703,343.012268 1200.417847,340.438660 
	C1175.646729,329.684052 1178.507812,296.527893 1197.356079,285.419098 
	C1218.482788,272.967407 1239.645874,275.225128 1260.330566,287.041840 
	C1262.628662,288.354736 1264.687988,290.094971 1266.810425,291.699951 
	C1267.307251,292.075745 1267.610229,292.708130 1268.225586,293.515167 
	C1265.428101,297.443878 1262.666626,301.322052 1259.551636,305.696655 
	C1257.857178,304.452118 1256.455811,303.401642 1255.032837,302.381134 
	C1241.808838,292.896454 1227.472046,289.154449 1211.729248,294.865906 
	C1201.937134,298.418457 1196.784546,307.419067 1200.108765,316.074432 
	C1201.619019,320.006592 1205.282471,324.329742 1209.051025,325.933258 
	C1218.015869,329.747894 1227.659180,331.944489 1236.962158,334.996490 
	C1242.954102,336.962219 1249.008057,338.896515 1254.718750,341.529114 
	C1266.679688,347.042908 1272.457275,356.957947 1272.387817,369.879120 
	C1272.319214,382.665649 1266.846436,393.051514 1255.095459,398.647095 
	C1248.621826,401.729736 1241.222290,402.868378 1233.769287,404.904327 
z"/>
<path fill="#53C3D6" opacity="1.000000" stroke="none" 
	d="
M947.945984,364.000000 
	C947.941833,342.188812 947.814026,320.876312 948.034180,299.567444 
	C948.080200,295.106689 946.738342,293.855438 942.372070,293.984955 
	C932.224915,294.286041 922.062744,294.081970 911.906616,294.082550 
	C910.124207,294.082672 908.341858,294.082581 906.263794,294.082581 
	C906.263794,288.933167 906.263794,284.373810 906.263794,279.467590 
	C939.698486,279.467590 972.892090,279.467590 1006.433716,279.467590 
	C1006.433716,284.231689 1006.433716,288.794586 1006.433716,294.063904 
	C992.558594,294.063904 978.859863,294.063904 964.618042,294.063904 
	C964.618042,330.642151 964.618042,366.522552 964.618042,402.710327 
	C958.975098,402.710327 953.890503,402.710327 947.946045,402.710327 
	C947.946045,389.962097 947.946045,377.231049 947.945984,364.000000 
z"/>
<path fill="#58C5D7" opacity="1.000000" stroke="none" 
	d="
M733.068115,295.003113 
	C733.068176,289.682739 733.068176,284.861420 733.068176,279.581879 
	C738.538635,279.581879 743.740417,279.581879 749.590332,279.581879 
	C749.590332,315.462280 749.590332,351.352631 749.590332,387.802277 
	C772.453064,387.802277 794.692261,387.802277 817.370361,387.802277 
	C817.370361,393.048950 817.370361,397.740967 817.370361,402.741272 
	C789.408386,402.741272 761.654114,402.741272 733.068054,402.741272 
	C733.068054,366.968750 733.068054,331.235474 733.068115,295.003113 
z"/>
<path fill="#50C5D9" opacity="1.000000" stroke="none" 
	d="
M870.745178,342.928253 
	C870.794434,343.717987 870.843628,344.507690 870.575928,346.008453 
	C870.170288,362.848663 870.071411,378.977814 869.997437,395.107086 
	C869.965820,401.994720 869.989441,401.994873 862.940125,401.996216 
	C862.607361,401.996307 862.266479,401.948730 861.942993,402.003448 
	C857.107178,402.820892 855.860962,400.768707 855.888123,395.997528 
	C856.088379,360.723053 855.948364,325.446838 856.030396,290.171417 
	C856.054932,279.627838 854.237671,281.289825 865.259216,280.925903 
	C868.997070,280.802460 870.107300,281.982239 870.068787,285.718964 
	C869.890625,303.022095 869.968384,320.328217 870.023193,337.633057 
	C870.028809,339.398865 870.493530,341.163208 870.745178,342.928253 
z"/>
<path fill="#5FC2D4" opacity="1.000000" stroke="none" 
	d="
M1120.234619,397.269989 
	C1110.490234,404.671112 1099.051636,405.762268 1087.518677,405.240601 
	C1071.122925,404.498901 1056.480103,398.939209 1047.719604,384.279144 
	C1043.580811,377.353363 1040.156006,368.884735 1039.856201,360.984344 
	C1038.841431,334.235748 1039.367065,307.428680 1039.323608,280.643921 
	C1039.323120,280.352966 1039.585693,280.061523 1039.885620,279.436462 
	C1044.804688,279.436462 1049.877686,279.436462 1055.525635,279.436462 
	C1055.616211,281.422943 1055.779053,283.353943 1055.781006,285.285095 
	C1055.803467,306.933929 1055.626587,328.584808 1055.877441,350.230804 
	C1056.006348,361.347290 1057.448486,372.319153 1066.320801,380.467102 
	C1077.812134,391.019958 1091.406616,391.444672 1105.169922,386.927399 
	C1117.304077,382.944855 1122.964355,373.084625 1124.614014,360.819153 
	C1125.122437,357.039459 1125.415283,353.201935 1125.429688,349.389465 
	C1125.510742,327.907440 1125.476807,306.424988 1125.481934,284.942657 
	C1125.482422,283.159546 1125.482056,281.376434 1125.482056,279.147278 
	C1131.384399,279.147278 1136.631836,279.147278 1142.076294,279.147278 
	C1142.255737,280.668121 1142.502930,281.789520 1142.503418,282.911011 
	C1142.512451,306.724548 1142.660278,330.539886 1142.400757,354.350769 
	C1142.292847,364.250092 1140.229248,373.870758 1135.151489,382.587158 
	C1134.242188,384.147980 1133.003662,385.516937 1131.535400,387.054626 
	C1131.153687,387.134766 1130.975708,386.975891 1131.124756,386.661316 
	C1138.469971,376.007690 1140.590576,364.068146 1140.849365,351.970917 
	C1141.330322,329.496948 1141.001953,307.005310 1140.948120,284.521179 
	C1140.945557,283.457764 1140.394775,281.495483 1140.007446,281.472137 
	C1136.048950,281.233521 1132.021606,280.989685 1128.145996,281.595764 
	C1127.454102,281.703949 1127.084351,285.693054 1127.048706,287.898071 
	C1126.644287,312.836304 1126.757202,337.792938 1125.765015,362.706116 
	C1125.425049,371.240875 1120.684814,378.679932 1113.665161,384.175720 
	C1105.698486,390.412750 1096.352783,391.774048 1086.796021,390.873291 
	C1074.371704,389.702362 1063.840576,384.509125 1058.860352,372.306305 
	C1056.349243,366.153473 1054.397949,359.326263 1054.219849,352.749146 
	C1053.643433,331.446320 1054.041870,310.118042 1053.986938,288.799774 
	C1053.964478,280.073700 1055.252075,281.219055 1045.854614,280.929901 
	C1042.274048,280.819763 1040.886963,281.700562 1040.914551,285.602814 
	C1041.082764,309.418335 1040.758057,333.239319 1041.129272,357.050232 
	C1041.260498,365.466614 1043.081543,373.754578 1047.530029,381.270050 
	C1056.959961,397.201172 1071.854736,403.149231 1089.289795,403.883942 
	C1099.998413,404.335205 1110.308105,401.775665 1120.034058,397.031982 
	C1120.100830,397.111389 1120.234619,397.269989 1120.234619,397.269989 
z"/>
<path fill="#5FC2D4" opacity="1.000000" stroke="none" 
	d="
M1075.173340,473.246246 
	C1071.230591,479.667542 1072.631226,484.541260 1079.180542,488.393463 
	C1077.724365,489.930206 1076.671631,491.041321 1075.140625,492.657135 
	C1070.781128,485.890442 1066.397339,487.664459 1060.476440,490.514221 
	C1056.011719,492.663177 1049.642578,492.512085 1044.562256,491.389099 
	C1033.171753,488.871155 1030.406372,476.866333 1038.837158,468.725800 
	C1040.736450,466.891846 1042.892822,465.324188 1045.371460,463.268677 
	C1044.161377,461.382965 1042.818970,459.560760 1041.759644,457.586670 
	C1039.149902,452.723419 1039.887451,447.398315 1043.524780,443.758270 
	C1047.412354,439.867706 1055.463989,438.921173 1060.838379,441.622742 
	C1065.445312,443.938507 1067.109619,448.076233 1065.711548,452.452179 
	C1064.635498,455.820465 1062.059692,459.123779 1059.295044,461.430267 
	C1056.076294,464.115814 1056.121338,465.846100 1058.888916,468.539368 
	C1061.579712,471.157776 1063.979004,474.075958 1067.251221,477.683990 
	C1069.001465,473.474548 1070.172974,470.656921 1071.358643,467.805450 
	C1075.208252,467.696564 1076.885376,469.032928 1075.173340,473.246246 
M1053.119019,470.321777 
	C1052.008301,469.157562 1050.897461,467.993378 1049.359863,466.381805 
	C1046.725586,468.729248 1044.069824,470.509338 1042.190674,472.899994 
	C1038.910889,477.072662 1039.373657,481.216644 1042.876587,484.437439 
	C1048.387817,489.504730 1059.610229,488.002625 1064.534424,480.562256 
	C1061.023071,477.433777 1057.317505,474.132172 1053.119019,470.321777 
M1060.294556,453.504974 
	C1061.852905,449.688507 1060.499023,446.960052 1056.925781,445.396698 
	C1053.183350,443.759308 1048.553101,445.265930 1046.804077,448.413544 
	C1044.628784,452.328400 1046.357910,456.532257 1052.298462,460.794312 
	C1054.759644,458.666260 1057.354858,456.422302 1060.294556,453.504974 
z"/>
<path fill="#5FC2D4" opacity="1.000000" stroke="none" 
	d="
M816.480713,492.476990 
	C797.026855,488.771698 787.151123,472.253418 794.266724,455.967987 
	C799.608826,443.741577 812.929199,437.426239 826.149292,440.852112 
	C839.216797,444.238434 847.144958,455.828888 845.702148,469.437378 
	C844.327759,482.401031 834.126404,491.736664 820.394165,492.568817 
	C819.234314,492.639069 818.064636,492.547455 816.480713,492.476990 
M826.712402,485.574799 
	C827.893982,484.971130 829.133789,484.458862 830.247742,483.749054 
	C837.893555,478.876923 841.298767,468.875275 838.494324,459.662201 
	C835.834595,450.924561 828.607056,445.791016 818.918579,445.757904 
	C809.676086,445.726318 801.767456,451.308777 799.549561,459.960754 
	C797.583313,467.630859 798.687134,474.943451 804.423706,480.800659 
	C810.434631,486.938232 817.799988,488.367859 826.712402,485.574799 
z"/>
<path fill="#5FC2D4" opacity="1.000000" stroke="none" 
	d="
M928.997925,440.460327 
	C933.995178,440.456207 938.503601,440.285126 942.984131,440.563110 
	C944.153809,440.635681 945.236694,442.106293 946.359375,442.934814 
	C945.190674,443.956085 944.047668,445.825989 942.849060,445.862366 
	C934.392883,446.118896 925.925171,445.998596 917.041992,445.998596 
	C917.041992,451.710083 917.041992,456.934784 917.041992,462.811951 
	C925.422852,462.811951 933.822815,462.811951 942.150085,462.811951 
	C943.666809,467.013214 942.606445,468.653442 938.631409,468.566376 
	C932.636902,468.435059 926.635071,468.626678 920.641113,468.482117 
	C917.613525,468.409088 916.655151,469.598816 916.531311,472.583771 
	C915.959778,486.350525 915.879944,486.342072 929.433228,486.286896 
	C934.097778,486.267883 938.779968,486.055939 943.416504,486.416046 
	C944.823486,486.525299 946.104553,488.255859 947.443237,489.243835 
	C946.181213,490.135773 944.934814,491.774353 943.654663,491.801147 
	C933.663574,492.010315 923.664490,491.990112 913.672485,491.796967 
	C912.505371,491.774384 910.372559,490.281586 910.362366,489.449799 
	C910.164001,473.329895 910.215210,457.206940 910.215210,440.461029 
	C916.606506,440.461029 922.552612,440.461029 928.997925,440.460327 
z"/>
<path fill="#5FC2D4" opacity="1.000000" stroke="none" 
	d="
M762.942505,468.512573 
	C756.121460,468.507935 749.785767,468.685242 743.467529,468.430420 
	C739.852417,468.284637 738.880249,469.687439 739.000488,473.070770 
	C739.212585,479.042542 739.059814,485.027283 739.059814,491.438385 
	C737.039307,491.438385 735.357483,491.438385 733.340576,491.438385 
	C733.340576,474.563751 733.340576,457.835449 733.340576,441.137848 
	C739.089844,439.803680 739.634399,440.235504 739.453369,445.686096 
	C739.298828,450.342010 738.982910,455.010284 739.218811,459.648682 
	C739.276672,460.787201 741.178406,462.735321 742.284119,462.772491 
	C750.268738,463.040344 758.270874,463.036591 766.255371,462.763916 
	C767.332825,462.727112 769.171082,460.758026 769.241577,459.597687 
	C769.564026,454.288177 769.195129,448.936218 769.531494,443.628479 
	C769.603333,442.494904 771.452393,440.900665 772.723022,440.624634 
	C773.525269,440.450317 775.675476,442.317688 775.687012,443.287476 
	C775.876404,459.234680 775.821594,475.184753 775.821594,491.497131 
	C773.610413,491.497131 771.874573,491.497131 769.368652,491.497131 
	C769.368652,485.888428 769.095337,480.270599 769.453003,474.693207 
	C769.752319,470.025543 768.423035,467.678986 762.942505,468.512573 
z"/>
<path fill="#5FC2D4" opacity="1.000000" stroke="none" 
	d="
M1170.273804,471.999664 
	C1170.269043,462.503937 1170.137817,453.504578 1170.391724,444.516052 
	C1170.430542,443.145691 1172.229126,440.685913 1173.253540,440.664795 
	C1180.729370,440.510864 1188.270142,440.350159 1195.683960,441.162781 
	C1204.964111,442.179962 1210.592407,448.738037 1210.861816,457.497467 
	C1211.134644,466.366638 1206.017700,473.089722 1196.801880,474.751099 
	C1191.617798,475.685638 1186.208008,475.532562 1180.899292,475.545715 
	C1177.944824,475.553040 1176.627686,476.425598 1176.772095,479.528381 
	C1176.949097,483.332886 1176.814209,487.151886 1176.814209,491.415466 
	C1174.621704,491.415466 1172.770020,491.415466 1170.273071,491.415466 
	C1170.273071,485.064117 1170.273071,478.781830 1170.273804,471.999664 
M1200.466187,467.052460 
	C1204.743164,463.455322 1205.041992,458.702423 1203.767822,453.863678 
	C1202.524902,449.143799 1198.675049,446.836151 1194.123657,446.501587 
	C1188.578613,446.093964 1182.980835,446.404633 1177.178345,446.404633 
	C1177.178345,454.287781 1177.178345,461.944550 1177.178345,470.029999 
	C1185.063354,469.583801 1192.755371,471.761139 1200.466187,467.052460 
z"/>
<path fill="#5FC2D4" opacity="1.000000" stroke="none" 
	d="
M1229.622314,462.547485 
	C1232.600830,455.988525 1235.414917,449.768707 1238.257202,443.561768 
	C1240.010132,439.734131 1245.161499,438.805389 1246.828613,442.295044 
	C1254.560913,458.480927 1261.991333,474.810974 1269.583862,491.205811 
	C1264.903809,492.937622 1261.957764,491.625671 1260.916138,487.212280 
	C1259.174805,479.833344 1254.587769,477.661835 1247.408203,478.559479 
	C1242.814941,479.133728 1238.076538,478.878540 1233.429199,478.584015 
	C1229.782349,478.352875 1227.821777,479.767181 1226.874634,483.172577 
	C1226.432129,484.763458 1225.473389,486.206818 1224.987183,487.790314 
	C1223.734253,491.869629 1221.139893,492.763855 1216.910645,491.245544 
	C1221.149902,481.675110 1225.309937,472.283600 1229.622314,462.547485 
M1250.585449,463.920380 
	C1248.214844,458.687500 1245.844360,453.454590 1242.934082,447.030487 
	C1238.756958,456.314728 1235.125488,464.386169 1231.326904,472.828949 
	C1239.145752,472.828949 1246.359131,472.828949 1254.247192,472.828949 
	C1252.987183,469.752380 1251.937134,467.188324 1250.585449,463.920380 
z"/>
<path fill="#5FC2D4" opacity="1.000000" stroke="none" 
	d="
M1148.795166,468.160034 
	C1156.360229,475.237213 1155.184570,485.254211 1146.567139,489.992035 
	C1138.797852,494.263550 1124.463135,493.007538 1117.454468,487.666443 
	C1114.363281,485.310852 1115.132935,483.383911 1117.270996,481.413666 
	C1121.498657,483.144531 1125.459961,485.456451 1129.712769,486.300507 
	C1133.464844,487.045227 1137.808960,486.931488 1141.382324,485.708649 
	C1143.780884,484.887817 1146.187500,481.745209 1146.982666,479.149017 
	C1148.103271,475.489685 1145.424927,472.808167 1141.954468,471.641724 
	C1137.230835,470.054169 1132.363525,468.899719 1127.612183,467.388672 
	C1119.587769,464.836761 1115.924072,460.545410 1116.158569,454.242432 
	C1116.420288,447.205841 1120.963257,442.403778 1129.197388,440.719208 
	C1136.997192,439.123474 1144.392334,440.120117 1151.650391,444.812134 
	C1150.928955,446.443878 1150.234009,448.015656 1150.000000,448.544922 
	C1143.672485,447.521606 1138.065430,446.328247 1132.397827,445.846924 
	C1130.289795,445.667877 1127.394043,446.555206 1126.019287,448.035431 
	C1124.312012,449.873627 1122.821411,452.942047 1123.083496,455.271301 
	C1123.314941,457.327728 1125.720093,459.983551 1127.796265,460.832855 
	C1134.536377,463.590210 1141.566162,465.639679 1148.795166,468.160034 
z"/>
<path fill="#56C3D6" opacity="1.000000" stroke="none" 
	d="
M872.330505,475.996277 
	C872.329834,465.888519 872.329834,456.279785 872.329834,446.087738 
	C866.173828,446.087738 860.607727,446.087738 855.112793,446.087738 
	C853.739502,441.977173 854.625488,440.350342 858.708252,440.408752 
	C869.856323,440.568268 881.009155,440.548401 892.157959,440.418091 
	C895.943237,440.373840 897.520264,441.536835 895.901306,445.993256 
	C890.514404,445.993256 884.948914,445.993256 878.778198,445.993256 
	C878.778198,461.489990 878.778198,476.373474 878.778198,491.558472 
	C876.418274,491.558472 874.691040,491.558472 872.331177,491.558472 
	C872.331177,486.389893 872.331177,481.442596 872.330505,475.996277 
z"/>
<path fill="#5FC2D4" opacity="1.000000" stroke="none" 
	d="
M964.266724,480.970367 
	C964.267517,468.652863 964.286194,456.830933 964.252197,445.009155 
	C964.245117,442.553040 964.064514,440.282471 967.676392,440.376831 
	C971.011108,440.463867 970.780701,442.631073 970.779724,444.851288 
	C970.774170,457.172668 970.887451,469.495544 970.717163,481.814514 
	C970.669006,485.297455 971.774292,486.495880 975.270203,486.381042 
	C982.089661,486.156982 988.925720,486.186707 995.743591,486.429352 
	C996.780518,486.466248 998.171143,488.062592 998.578918,489.225067 
	C998.770813,489.772034 997.033264,491.785034 996.146118,491.800903 
	C985.713928,491.987244 975.277283,491.920502 964.265930,491.920502 
	C964.265930,488.037506 964.265930,484.751740 964.266724,480.970367 
z"/>
<path fill="#5FC2D4" opacity="1.000000" stroke="none" 
	d="
M870.837891,342.473938 
	C870.493530,341.163208 870.028809,339.398865 870.023193,337.633057 
	C869.968384,320.328217 869.890625,303.022095 870.068787,285.718964 
	C870.107300,281.982239 868.997070,280.802460 865.259216,280.925903 
	C854.237671,281.289825 856.054932,279.627838 856.030396,290.171417 
	C855.948364,325.446838 856.088379,360.723053 855.888123,395.997528 
	C855.860962,400.768707 857.107178,402.820892 861.942993,402.003448 
	C862.266479,401.948730 862.607361,401.996307 862.940125,401.996216 
	C869.989441,401.994873 869.965820,401.994720 869.997437,395.107086 
	C870.071411,378.977814 870.170288,362.848663 870.502319,346.399017 
	C870.745605,364.843750 870.745605,383.608948 870.745605,402.712219 
	C865.393311,402.712219 860.308899,402.712219 854.743408,402.712219 
	C854.743408,361.749512 854.743408,320.765533 854.743408,279.591125 
	C859.910278,279.591125 864.980225,279.591125 870.930603,279.591125 
	C870.930603,300.281830 870.930603,321.150726 870.837891,342.473938 
z"/>
<path fill="#5FC2D4" opacity="1.000000" stroke="none" 
	d="
M1131.244873,387.211609 
	C1127.861816,390.562622 1124.387573,393.836761 1120.573975,397.190460 
	C1120.234619,397.269989 1120.100830,397.111389 1120.239014,396.775024 
	C1123.910156,393.284393 1127.442993,390.130157 1130.975708,386.975891 
	C1130.975708,386.975891 1131.153687,387.134766 1131.244873,387.211609 
z"/>
<path fill="#FDFFFF" opacity="1.000000" stroke="none" 
	d="
M548.131714,405.752899 
	C546.006897,396.832397 544.002319,388.281219 542.293823,380.993195 
	C537.160828,397.220001 541.767395,424.527893 565.572083,440.521118 
	C557.465393,442.787689 550.113525,445.051727 542.656494,446.889496 
	C519.152954,452.681976 495.299683,455.558655 471.074921,456.341553 
	C423.970062,457.863831 378.421143,451.018219 335.235260,431.727692 
	C317.927368,423.996460 301.381866,414.573853 284.316040,406.277588 
	C278.069519,403.240997 271.443634,400.823517 264.775848,398.849579 
	C252.259781,395.144287 240.118301,396.555176 228.492996,402.660828 
	C221.335312,406.420074 218.635147,405.411285 215.392334,397.967194 
	C212.633743,391.634705 212.511871,385.040344 214.096802,378.386444 
	C215.357300,373.094574 216.617020,372.331299 221.728790,374.457397 
	C235.408783,380.147278 249.742676,382.505646 264.278534,380.570740 
	C278.079712,378.733612 291.711700,375.454376 305.320312,372.376862 
	C335.474487,365.557678 365.478912,358.046997 395.727234,351.688080 
	C408.364197,349.031525 421.432739,347.976746 434.363953,347.267181 
	C459.815155,345.870544 485.413910,345.356232 510.617798,349.370117 
	C534.547729,353.181122 558.182373,358.878174 581.895813,363.983185 
	C585.511292,364.761505 588.116455,365.083649 591.380066,362.394775 
	C599.613647,355.611023 612.220459,358.933258 616.373779,368.981140 
	C617.900391,372.674377 620.262817,373.949738 623.545532,374.933380 
	C628.788025,376.504272 633.980225,378.243347 639.851562,380.121796 
	C636.474792,383.340057 633.362061,385.962341 630.674622,388.965179 
	C628.011719,391.940582 625.777405,395.299652 623.355164,398.490417 
	C623.723694,399.090820 624.092224,399.691193 624.460693,400.291595 
	C630.925964,399.132385 637.391174,397.973206 643.856384,396.813995 
	C633.449585,407.550934 621.201965,415.178314 608.487854,422.056915 
	C601.467163,425.855225 594.070190,428.951233 586.943237,432.561981 
	C581.716064,435.210297 576.770386,434.655579 571.664246,432.272278 
	C560.108765,426.878723 553.027405,417.549530 548.131714,405.752899 
M447.633270,380.028076 
	C441.222748,380.924255 434.812256,381.820465 428.401733,382.716675 
	C428.400757,383.371643 428.399780,384.026642 428.398834,384.681641 
	C430.166199,385.386810 431.920929,386.125916 433.703369,386.790710 
	C438.842834,388.707611 444.337982,389.976288 449.072327,392.614288 
	C461.090790,399.311005 472.918701,406.381989 484.539429,413.750214 
	C494.116852,419.822906 504.091949,422.053955 515.324036,419.486481 
	C510.174683,405.346863 518.770996,400.384338 530.528381,397.520172 
	C518.887146,389.473877 481.037720,378.596130 447.633270,380.028076 
M604.311829,367.066101 
	C597.808533,365.856049 593.131836,368.799042 592.132874,374.730072 
	C591.229065,380.096313 595.061401,385.055450 600.553650,385.626740 
	C604.493408,386.036560 609.070923,383.129852 610.371399,379.392487 
	C611.942200,374.878235 610.207031,370.960236 604.311829,367.066101 
z"/>
<path fill="#53C3D6" opacity="1.000000" stroke="none" 
	d="
M1131.124756,386.661316 
	C1127.442993,390.130157 1123.910156,393.284393 1120.172363,396.695618 
	C1110.308105,401.775665 1099.998413,404.335205 1089.289795,403.883942 
	C1071.854736,403.149231 1056.959961,397.201172 1047.530029,381.270050 
	C1043.081543,373.754578 1041.260498,365.466614 1041.129272,357.050232 
	C1040.758057,333.239319 1041.082764,309.418335 1040.914551,285.602814 
	C1040.886963,281.700562 1042.274048,280.819763 1045.854614,280.929901 
	C1055.252075,281.219055 1053.964478,280.073700 1053.986938,288.799774 
	C1054.041870,310.118042 1053.643433,331.446320 1054.219849,352.749146 
	C1054.397949,359.326263 1056.349243,366.153473 1058.860352,372.306305 
	C1063.840576,384.509125 1074.371704,389.702362 1086.796021,390.873291 
	C1096.352783,391.774048 1105.698486,390.412750 1113.665161,384.175720 
	C1120.684814,378.679932 1125.425049,371.240875 1125.765015,362.706116 
	C1126.757202,337.792938 1126.644287,312.836304 1127.048706,287.898071 
	C1127.084351,285.693054 1127.454102,281.703949 1128.145996,281.595764 
	C1132.021606,280.989685 1136.048950,281.233521 1140.007446,281.472137 
	C1140.394775,281.495483 1140.945557,283.457764 1140.948120,284.521179 
	C1141.001953,307.005310 1141.330322,329.496948 1140.849365,351.970917 
	C1140.590576,364.068146 1138.469971,376.007690 1131.124756,386.661316 
z"/>
<path fill="#FDFFFF" opacity="1.000000" stroke="none" 
	d="
M1053.365479,470.576172 
	C1057.317505,474.132172 1061.023071,477.433777 1064.534424,480.562256 
	C1059.610229,488.002625 1048.387817,489.504730 1042.876587,484.437439 
	C1039.373657,481.216644 1038.910889,477.072662 1042.190674,472.899994 
	C1044.069824,470.509338 1046.725586,468.729248 1049.359863,466.381805 
	C1050.897461,467.993378 1052.008301,469.157562 1053.365479,470.576172 
z"/>
<path fill="#FDFFFF" opacity="1.000000" stroke="none" 
	d="
M1060.122314,453.841675 
	C1057.354858,456.422302 1054.759644,458.666260 1052.298462,460.794312 
	C1046.357910,456.532257 1044.628784,452.328400 1046.804077,448.413544 
	C1048.553101,445.265930 1053.183350,443.759308 1056.925781,445.396698 
	C1060.499023,446.960052 1061.852905,449.688507 1060.122314,453.841675 
z"/>
<path fill="#FDFFFF" opacity="1.000000" stroke="none" 
	d="
M826.339478,485.713562 
	C817.799988,488.367859 810.434631,486.938232 804.423706,480.800659 
	C798.687134,474.943451 797.583313,467.630859 799.549561,459.960754 
	C801.767456,451.308777 809.676086,445.726318 818.918579,445.757904 
	C828.607056,445.791016 835.834595,450.924561 838.494324,459.662201 
	C841.298767,468.875275 837.893555,478.876923 830.247742,483.749054 
	C829.133789,484.458862 827.893982,484.971130 826.339478,485.713562 
z"/>
<path fill="#FDFFFF" opacity="1.000000" stroke="none" 
	d="
M1200.161987,467.297516 
	C1192.755371,471.761139 1185.063354,469.583801 1177.178345,470.029999 
	C1177.178345,461.944550 1177.178345,454.287781 1177.178345,446.404633 
	C1182.980835,446.404633 1188.578613,446.093964 1194.123657,446.501587 
	C1198.675049,446.836151 1202.524902,449.143799 1203.767822,453.863678 
	C1205.041992,458.702423 1204.743164,463.455322 1200.161987,467.297516 
z"/>
<path fill="#FDFFFF" opacity="1.000000" stroke="none" 
	d="
M1250.736206,464.272308 
	C1251.937134,467.188324 1252.987183,469.752380 1254.247192,472.828949 
	C1246.359131,472.828949 1239.145752,472.828949 1231.326904,472.828949 
	C1235.125488,464.386169 1238.756958,456.314728 1242.934082,447.030487 
	C1245.844360,453.454590 1248.214844,458.687500 1250.736206,464.272308 
z"/>
<path fill="#54C4D7" opacity="1.000000" stroke="none" 
	d="
M448.117493,380.015930 
	C481.037720,378.596130 518.887146,389.473877 530.528381,397.520172 
	C518.770996,400.384338 510.174683,405.346863 515.324036,419.486481 
	C504.091949,422.053955 494.116852,419.822906 484.539429,413.750214 
	C472.918701,406.381989 461.090790,399.311005 449.072327,392.614288 
	C444.337982,389.976288 438.842834,388.707611 433.703369,386.790710 
	C431.920929,386.125916 430.166199,385.386810 428.398834,384.681641 
	C428.399780,384.026642 428.400757,383.371643 428.401733,382.716675 
	C434.812256,381.820465 441.222748,380.924255 448.117493,380.015930 
z"/>
<path fill="#D7B058" opacity="1.000000" stroke="none" 
	d="
M604.665527,367.186768 
	C610.207031,370.960236 611.942200,374.878235 610.371399,379.392487 
	C609.070923,383.129852 604.493408,386.036560 600.553650,385.626740 
	C595.061401,385.055450 591.229065,380.096313 592.132874,374.730072 
	C593.131836,368.799042 597.808533,365.856049 604.665527,367.186768 
z"/>
</svg>